#tb 0: 1/1
#media_type 0: video
#codec_id 0: rawvideo
#dimensions 0: 72x36
#sar 0: 0/1
0,          0,          0,        1,    10368, 0xc111bc6c
0,          1,          1,        1,    10368, 0x04bd61c3
0,          2,          2,        1,    10368, 0xb14c3ad3
0,          3,          3,        1,    10368, 0x7ae3ed71
0,          4,          4,        1,    10368, 0xd7ff9cc2
